<svg id="Layer_1" enable-background="new 0 0 511.888 511.888" height="512" viewBox="0 0 511.888 511.888" width="512" xmlns="http://www.w3.org/2000/svg"><g><g><g><g><path d="m446.31 468.071c19.891 0 33.578-20.194 25.973-38.573-6.882-16.631-17.214-28.755-4.601-57.023 22.288-49.951 10.291-76.443-9.43-108.515-33.432-54.371-8.989-82.141-21.99-129.241-18.034-65.338-68.75-105.506-126.966-120.502-17.341-4.467-35.347-1.867-53.353-1.867-18.549 0-37.098-2.464-54.919 2.276-57.558 15.308-107.527 55.339-125.4 120.093-13 47.101 11.443 74.87-21.99 129.241-19.721 32.072-31.718 58.564-9.43 108.515 12.613 28.269 2.281 40.393-4.601 57.023-7.605 18.379 6.082 38.573 25.973 38.573z" fill="#735351"/><path d="m467.682 372.475c22.288-49.951 10.291-76.443-9.43-108.515-33.432-54.371-8.989-82.141-21.99-129.241-18.034-65.338-68.75-105.505-126.967-120.502-22.161-5.709-45.409-3.802-68.355-2.215 73.243 5.065 143.409 43.326 165.322 122.717 13 47.101-11.443 74.87 21.99 129.241 19.721 32.072 31.718 58.564 9.43 108.515-12.613 28.269-2.281 40.393 4.601 57.023 7.605 18.379-6.082 38.573-25.973 38.573h30c19.891 0 33.578-20.194 25.973-38.573-6.882-16.631-17.214-28.755-4.601-57.023z" fill="#664442"/><g><g><ellipse cx="392.171" cy="270.623" fill="#fac8a2" rx="30.381" ry="30.523"/></g><g><ellipse cx="119.717" cy="270.623" fill="#fac8a2" rx="30.381" ry="30.523"/></g></g><g><path d="m115.709 504.516v-22.559c0-77.332 62.69-140.022 140.022-140.022h.426c77.332 0 140.022 62.69 140.022 140.022v22.559z" fill="#ff80b3"/><path d="m256.157 341.935h-.426c-4.994 0-9.928.262-14.787.772 70.381 7.387 125.235 66.912 125.235 139.25v22.559h30v-22.559c0-77.332-62.69-140.022-140.022-140.022z" fill="#ff6ba7"/><path d="m255.998 448.727h-.108c-19.618 0-35.521-15.904-35.521-35.521v-57.491h71.151v57.491c-.001 19.618-15.904 35.521-35.522 35.521z" fill="#ffd8ba"/></g><g><path d="m183.475 105.012c-4.497 45.751-27.728 50.849-42.074 55.825-6.878 2.386-11.472 8.911-11.472 16.221v86.505c0 69.92 56.419 126.6 126.014 126.6 69.596 0 126.014-56.681 126.014-126.6v-80.477c0-9.743-8.053-17.454-17.747-17.169-15.173.445-40.366.56-59.885-18.765-24.882-24.636-39.273-15.864-65.241-16.457-32.465-.741-45.9-15.867-51.345-26.497-1.037-2.027-4.041-1.453-4.264.814z" fill="#ffd8ba"/></g></g></g><path d="m255.944 7.516c-72.928 0-132.047 16.913-132.047 37.776s59.119 37.777 132.047 37.777 132.047-16.913 132.047-37.777-59.12-37.776-132.047-37.776zm80.666 41.601c-22.634 5.241-51.281 8.127-80.666 8.127s-58.033-2.886-80.666-8.127c-5.419-1.255-10.103-2.546-14.143-3.824 4.039-1.278 8.724-2.569 14.143-3.824 22.634-5.241 51.281-8.127 80.666-8.127s58.033 2.886 80.666 8.127c5.419 1.255 10.103 2.546 14.143 3.824-4.04 1.278-8.724 2.569-14.143 3.824z" fill="#ffdc17"/><g><path d="m255.944 7.516c-5.072 0-10.077.082-15 .241 65.865 2.131 117.047 18.123 117.047 37.535s-51.182 35.405-117.047 37.535c4.923.159 9.928.241 15 .241 72.928 0 132.047-16.913 132.047-37.777 0-20.862-59.119-37.775-132.047-37.775z" fill="#f0c400"/></g></g><g><path d="m475.754 418.893c-5.866-12.609-10.5-22.569-1.222-43.362 23.813-53.367 10.278-82.699-9.89-115.499-19.075-31.022-18.127-52.663-17.124-75.575.69-15.763 1.404-32.062-4.025-51.732-8.719-31.592-25.405-58.724-49.041-81.271 7.244-20.983-21.029-32.905-35.859-37.852-8.902-2.97-14.056 11.124-4.747 14.229 60.216 20.654 2.411 36.514-21.497 40.606-25.014 5.341-50.867 7.133-76.404 7.133-26.586 0-53.559-1.915-79.542-7.793-33.731-6.454-75.233-23.008-11.766-41.985 39.604-11.765 106.073-13.714 151.366-6.566 9.284 1.396 11.926-13.381 2.223-14.834-19.374-2.903-40.328-4.375-62.28-4.375-34.997-.427-150.723 7.385-138.507 51.443-36.062 32.378-58.305 85.397-53.067 132.997 1.002 22.912 1.95 44.553-17.125 75.575-20.168 32.8-33.703 62.132-9.89 115.499 9.277 20.793 4.644 30.753-1.222 43.362-6.307 13.557-9.062 27.528-.16 40.847 6.626 9.913 17.693 15.831 29.604 15.831h42.766c-.407 9.629-.135 19.31-.135 28.945 0 9.829 15.252 9.829 15.252 0 0-11.987-.19-23.943.66-35.905 1.259-12.651 4.318-24.969 9.139-36.765 3.717-9.093-10.374-14.858-14.099-5.769-4.557 11.126-7.705 22.666-9.42 34.493h-44.164c-6.994 0-13.239-3.342-17.133-9.167-5.931-8.873-2.777-17.442 1.29-26.184 6.273-13.484 13.383-28.767 1.32-55.801-20.917-46.876-10.028-70.635 8.969-101.53 21.485-34.941 20.39-59.927 19.332-84.089-.669-15.272-1.301-29.697 3.498-47.086 7.937-28.757 22.613-53.352 43.667-73.212 47.181 36.25 211.49 36.311 258.828.014 21.256 20.239 35.864 44.864 43.684 73.198 4.799 17.389 4.167 31.813 3.498 47.086-1.058 24.162-2.153 49.147 19.332 84.089 18.998 30.896 29.886 54.654 8.969 101.53-12.062 27.034-4.953 42.316 1.32 55.801 4.066 8.742 7.221 17.31 1.29 26.184-3.894 5.825-10.139 9.167-17.133 9.167h-44.172c-5.58-38.44-26.076-73.12-57.474-96.652 17.019-15.152 30.17-34.594 37.757-56.62 23.755 6.51 47.883-12.097 47.883-36.675 0-21.651-18.959-39.473-40.594-37.926v-49.611c0-13.687-11.802-25.018-25.467-24.666-12.768.378-36.54 1.073-54.388-16.599-21.585-21.369-37.684-20.296-54.727-19.163-4.919.328-10.008.663-15.62.538-27.896-.637-39.782-12.543-44.841-22.419-4.414-8.616-17.343-5.831-18.404 3.501-3.764 38.291-20.773 43.997-34.44 48.582-10.902 3.657-19.142 12.035-19.142 24.197v55.639c-21.637-1.539-40.594 16.265-40.594 37.927-.351 24.66 24.278 43.488 47.884 36.675 7.57 21.978 20.68 41.382 37.644 56.519-10.342 7.742-19.613 16.794-27.643 27.002-5.859 7.447 5.883 16.782 11.789 9.273 8.039-10.219 17.459-19.147 28.053-26.596 10.161 7.144 21.354 12.904 33.306 17.006v22.703c-.004 23.759 19.37 43.084 43.129 43.021 23.722 0 43.021-19.3 43.021-43.021v-22.702c11.902-4.085 23.052-9.815 33.18-16.918 35.302 24.868 56.227 65.01 56.227 108.373v22.559c0 9.386 15 9.813 15 0 0-9.635.275-19.317-.136-28.945h42.768c11.911 0 22.977-5.918 29.604-15.831 8.903-13.32 6.149-27.291-.158-40.848zm-86.043-155.329v-15.804c13.472-1.596 25.594 9.327 25.594 22.863 0 14.814-14.416 26.103-28.804 22.24 2.1-9.433 3.21-19.238 3.21-29.299zm-269.742 30.082c-12.617 0-22.881-10.328-22.881-23.022 0-13.535 12.122-24.46 25.594-22.864 0 15.164-.113 30.185 3.211 45.104-1.923.516-3.917.782-5.924.782zm164.303 119.56c0 15.451-12.57 28.021-28.021 28.021-15.488.062-28.133-12.533-28.129-28.021v-18.525c18.436 3.978 37.715 3.978 56.151 0v18.525zm-28.076-30.542c-65.349 0-118.515-53.429-118.515-119.101v-21.465c.005-.158.005-.315 0-.472v-64.568c0-5.666 4.148-8.378 8.912-9.977 13.43-4.505 35.006-11.742 42.614-48.139 14.652 15.819 36.713 18.947 49.958 19.25 6.286.143 11.956-.234 16.959-.567 16.461-1.098 26.396-1.758 43.177 14.856 22.416 22.193 51.436 21.338 65.382 20.933 5.408-.137 10.026 4.228 10.026 9.672v80.478c.002 65.672-53.163 119.1-118.513 119.1z"/><path d="m278.491 317.228c-11.891 12.446-33.209 12.445-45.1 0-2.922-2.937-7.671-2.947-10.606-.024-2.936 2.922-2.947 7.671-.024 10.606 17.477 18.298 48.885 18.297 66.361 0 6.762-7.281-3.389-17.375-10.631-10.582z"/><path d="m171.964 203.959c.111-.083 11.282-8.649 24.868-8.972 4.141-.099 7.418-3.535 7.32-7.676-.093-4.145-3.555-7.424-7.676-7.32-18.772.446-33.222 11.731-33.828 12.212-3.247 2.572-3.792 7.29-1.22 10.536 1.481 1.869 6.266 4.402 10.536 1.22z"/><path d="m315.056 194.988c13.57.322 24.67 8.819 24.887 8.986 3.172 2.498 8.066 1.859 10.517-1.234 2.573-3.246 2.027-7.964-1.22-10.536-.606-.48-15.056-11.766-33.828-12.212-4.163-.054-7.578 3.179-7.676 7.32s3.179 7.577 7.32 7.676z"/><path d="m173.586 34.163c-5.945 1.377-19.95 2.286-19.951 11.129s14.007 9.755 19.951 11.132c46.01 11.009 118.706 11.009 164.716 0 5.944-1.377 19.952-2.289 19.951-11.132s-14.006-9.752-19.951-11.129c-46.01-11.01-118.706-11.01-164.716 0zm82.358 15.581c-21.418 0-42.399-1.555-60.831-4.451 36.648-5.9 85.015-5.9 121.662 0-18.432 2.896-39.413 4.451-60.831 4.451z"/><path d="m244.423 261.713c2.929-2.93 2.929-7.678 0-10.607-23.929-23.928-62.865-23.928-86.793 0-2.929 2.93-2.929 7.678 0 10.607 2.929 2.928 7.678 2.928 10.606 0 18.08-18.082 47.188-17.767 65.581 0 4.627 4.47 9.142 1.464 10.606 0z"/><path d="m267.464 251.106c-2.929 2.93-2.929 7.678 0 10.607 2.929 2.928 7.678 2.928 10.606 0 18.082-18.082 47.5-18.081 65.581 0 3.535 2.928 7.071 2.928 10.606 0 2.929-2.93 2.929-7.678 0-10.607-23.928-23.927-62.864-23.927-86.793 0z"/></g></g></svg>